<svg id="Ebene_1" data-name="Ebene 1" xmlns="http://www.w3.org/2000/svg" xmlns:xlink="http://www.w3.org/1999/xlink" viewBox="0 0 177.74 35.53"><defs><style>.cls-1{fill:none;}.cls-2{clip-path:url(#clip-path);}.cls-3{fill:#007e74;}</style><clipPath id="clip-path" transform="translate(-322.64 -279.05)"><rect class="cls-1" x="322.64" y="279.05" width="177.74" height="35.53"/></clipPath></defs><g class="cls-2"><path class="cls-3" d="M340.4,314.09a17.27,17.27,0,1,1,17.26-17.27,17.29,17.29,0,0,1-17.26,17.27m0-35a17.77,17.77,0,1,0,17.76,17.77,17.78,17.78,0,0,0-17.76-17.77" transform="translate(-322.64 -279.05)"/><path class="cls-3" d="M352.07,299.71c-.55.49-1.4.53-1.74.84-.18.16-.26.42-.07.87.11.27.19.3-.19.4-.61.16-.7,1-1.48.82-.31-.06-.09.14,0,.15a.84.84,0,0,0,.78-.23,2.13,2.13,0,0,1,.6-.5c.25-.09.5-.09.51.1s-.31.37-.45.43c.16.08.65.33.24.61s-.78-.08-.84-.12-.28,0-.22.05c.24.29.89.21.77.37-.6.81-.11,1.28-.29,2.08s-1.31,1.27-2.17,1.43c-2.94.53-5.79-2-7.47-3.85.15-.36.13-.83,0-.66s-.12.42-.47.5c-.67.17-1-1-1.17-1.2a2.52,2.52,0,0,1-.65-2.93,1.07,1.07,0,0,1,1.92-.19c.51.75.28,1.18.57,1.41a.85.85,0,0,0,.92,0c.31-.08.29.73,1.34.69s1-1.8,1.17-2a2.11,2.11,0,0,0,.45-3c-.07-.08.16-.6.24-.62a2.22,2.22,0,0,0,1.6-1.32,2.34,2.34,0,0,0,1.93-1c.13-.28.55.26,1.5-.48a.15.15,0,0,1,.25.05c.61,1.49.87,1.91.82,2.67a23.82,23.82,0,0,0,1.59,3.9c.12.29.14.59,0,.71m-6.74,7.8a4.45,4.45,0,0,0,0,3.71c.09.22.16.38,0,.35-1.31-.23-1.59-.44-5.7-.09-.29,0,.1-.58.05-1a1.16,1.16,0,0,0,1.1-.83c.16-.74-.36-1.29-.3-1.39.58-1.14,0-2.39-.53-4.5-.05-.2.06-.29.15-.19,2.64,2.85,4.32,3.42,5.23,3.69.09,0,.07.13,0,.23m-8,3.95a2.27,2.27,0,0,1-.41-2.67c.07-.15,1-.06,1.15,0s-.12,1.16,1.15,1.65c.13.05,0,1.5-1.89,1m-1.91-.71c-.15-.62-.2-1.7.06-1.94,0-.05.82-.16.81,0a3.28,3.28,0,0,0,.2,2.4c.22.3-.89.35-1.07-.48M340,310a1,1,0,0,1-1.24-1.08c.1-.15.74.18,1.23-.14s.59,1,0,1.22M334,308.34c-.06-.33.27-.65.26-1.39,0-.9-1.12-2.13-1.87-2.92a3.15,3.15,0,0,0,1.33-.32,2.68,2.68,0,0,0,1.37-1.76,1.76,1.76,0,0,0-.63-.08l.13-.06a2.61,2.61,0,0,0,1.32-1.88,3.06,3.06,0,0,0-.67,0l.33-.13a2.43,2.43,0,0,0,1.44-1.78,1.89,1.89,0,0,0-.59-.08l.32-.13a2.61,2.61,0,0,0,1.36-1.75,1.7,1.7,0,0,0-.55-.06,3.74,3.74,0,0,0,.76-.25,2.48,2.48,0,0,0,1.45-1.62,1.4,1.4,0,0,0-.5-.1,7.14,7.14,0,0,0,.74-.21,2.35,2.35,0,0,0,1.5-1.46c-.15,0-.36-.08-.63-.13A4.3,4.3,0,0,0,342,292c1.2-.41,1.63-1.13,1.65-1.45a.89.89,0,0,0-.38-.13,4.32,4.32,0,0,0,.79-.22,3.13,3.13,0,0,0,1.63-1.65,5.61,5.61,0,0,0,.66-.26,1.91,1.91,0,0,0,.32-.17l.28.19c.17.11.23.14.14.21a43.3,43.3,0,0,0-8,9.41c0,.06-.1.05-.21,0-1.34-.09-2.1,1.51-1.5,3a3.47,3.47,0,0,1-.76.94c-.05,0-.18.23,0,.21s.71-.53.91-.76c.08.1.37.35.23.49a10.94,10.94,0,0,1-2.36,1.77c-.43.21.71.35,2.66-1.41.11-.1.25.41.42.63-.33,1.1.49,3.23.36,3.9a.47.47,0,0,1-.48.45,9.56,9.56,0,0,0-3.1.24c-.46.14-.34.44,0,.35a7.32,7.32,0,0,1,2.86-.12c.51,0,1.09-.11,1.09-1s-.61-3.11-.41-3.43a1.14,1.14,0,0,0,.59.24c0,.76,1.19,3.21.65,4.57-.2.5-1.09.46-2.61.31-2.59-.25-3.43.3-3.48,0m-.05,1.87a1.79,1.79,0,0,1,.09-1.22c.29-.14.83-.2.84,0a4.45,4.45,0,0,0,.05,1.73c-.06.13-.79.07-1-.48m-.88-7.86a2.84,2.84,0,0,1,1.57-.19,2.66,2.66,0,0,1-1,1.36,2.1,2.1,0,0,1-1.49.22c.4-.43.31-1.08,1-1.39m-1.36,1.22a2.28,2.28,0,0,1-.74-1.41v-.1a3.16,3.16,0,0,1,.4-1.52,1.64,1.64,0,0,1,.91,1.47,2.4,2.4,0,0,1-.57,1.56m-.6.95h0a11.74,11.74,0,0,1-2.78-7.71,12,12,0,0,1,12-12,11.9,11.9,0,0,1,5,1.08,3.87,3.87,0,0,0-.69.44,10.88,10.88,0,0,0-4.31-.86A11.38,11.38,0,0,0,329,296.82a10.84,10.84,0,0,0,2.51,7.11l-.39.59m0,4.2a15.31,15.31,0,0,1-5.85-11.9,15.11,15.11,0,0,1,22.13-13.39.07.07,0,0,1,0,.11,15.68,15.68,0,0,0-1.72,1.93,12.39,12.39,0,0,0-5.3-1.18,12.54,12.54,0,0,0-12.53,12.53,12.19,12.19,0,0,0,3,8.15,4,4,0,0,0-.32,1.6,4.33,4.33,0,0,0,.56,2.15m11.22-18.48c-.09-.06.72-1,1.38-1.22a2.84,2.84,0,0,1,1.4-.16,2.28,2.28,0,0,1-1.2,1.13,2.94,2.94,0,0,1-1.58.25m-2.05,1.67a3.44,3.44,0,0,1,1.37-1.23,3,3,0,0,1,1.55,0c.09,0-.46.86-1.31,1.11a3.78,3.78,0,0,1-1.61.16m-2,1.93A2.12,2.12,0,0,1,341,292.5c.16,0-.23.76-1.13,1.1a3.71,3.71,0,0,1-1.63.24m-1.81,2a4,4,0,0,1,1.41-1.4,2.6,2.6,0,0,1,1.42-.17,1.92,1.92,0,0,1-1.09,1.26,3.89,3.89,0,0,1-1.74.31m-1.51,2a3.62,3.62,0,0,1,1.26-1.4,3.13,3.13,0,0,1,1.5-.23,2.08,2.08,0,0,1-1,1.29,3.09,3.09,0,0,1-1.71.34m-1.16,2a2.53,2.53,0,0,1,1.2-1.42,3.13,3.13,0,0,1,1.58-.25c.09,0-.29.95-1,1.28s-1.09.16-1.8.39m.06.57a3.13,3.13,0,0,1,1.65-.25,2.12,2.12,0,0,1-1,1.39,2.51,2.51,0,0,1-1.67.34,2,2,0,0,1,1-1.48m-1.23-2.13a1.59,1.59,0,0,1,.69,1.39,2,2,0,0,1-.77,1.59c-.16-.61-.46-.74-.45-1.35a3.17,3.17,0,0,1,.53-1.63m2-1.05a2.55,2.55,0,0,1-.86,1.83,3.11,3.11,0,0,1-.37-1.29,2,2,0,0,1,.6-1.65c.09.31.64.55.63,1.11m1.45-2.17a1.81,1.81,0,0,1-.08.51,3.75,3.75,0,0,1-.89,1.37,2.42,2.42,0,0,1-.27-1,2.51,2.51,0,0,1,.88-1.88c.13,0,.36.53.36,1m1.42-1.12c-.3.65-.5.67-.85,1.08a1.77,1.77,0,0,1-.06-1.49,2.4,2.4,0,0,1,.89-1.18c.09-.1.33.9,0,1.59m1.74-1.81c-.29.52-.56.4-1,1.13-.06.08-.19-.61.11-1.53a2.18,2.18,0,0,1,1-1.17,1.8,1.8,0,0,1-.06,1.57m1.87-1.71c-.57.86-.6.57-1.23,1.4a4.28,4.28,0,0,1,.18-1.59,2.81,2.81,0,0,1,1.05-1.27,1.71,1.71,0,0,1,0,1.46m1.72-1.27a3.72,3.72,0,0,0-1,1.08c-.09.15-.32-.84.29-1.8a3.21,3.21,0,0,1,1.1-1c-.05.23.36,1.11-.43,1.75m1.56-2.2a3,3,0,0,1,1.39-1,2.15,2.15,0,0,1-.67,1.45,5.12,5.12,0,0,1-1.45,1,3.51,3.51,0,0,1,.73-1.51m-12.53,13.48a1.49,1.49,0,0,0-.5-.42,4,4,0,0,0-.6,1.51,10.73,10.73,0,0,1-1.26-4.72A10.6,10.6,0,0,1,340.43,286a9.63,9.63,0,0,1,3.8.77,4.53,4.53,0,0,0-.63,1.12c0-.32-.09-.57-.06-.78s-.87.15-1.65,1.4a2.86,2.86,0,0,0-.37.9,2,2,0,0,0-.16-.82,2.73,2.73,0,0,0-1.44,1.48,3.22,3.22,0,0,0-.18.58,1.33,1.33,0,0,0-.15-.55,2.67,2.67,0,0,0-1.46,1.51,2.54,2.54,0,0,0-.19.78c-.09-.39-.24-.63-.28-.57-.33.41-1,.59-1.29,1.62a2.71,2.71,0,0,0-.12.72,1.05,1.05,0,0,0-.38-.55,3.53,3.53,0,0,0-1.19,1.84,2.85,2.85,0,0,0,0,1,3.82,3.82,0,0,1-.52-.81,2.59,2.59,0,0,0-1,1.81,3.7,3.7,0,0,0,.13,1c-.27-.49-.65-.72-.7-.69a3.09,3.09,0,0,0-.81,1.86,2,2,0,0,0,.07.78M346,287.21a2.93,2.93,0,0,1,1.26-.27c.14,0-.31.81-1.1,1.15a3.68,3.68,0,0,1-1.51.39c-.11-.06.7-1,1.35-1.27m-5.45,12.54c-.16,0-.23-.36-.19-.49a5,5,0,0,1,.67-1.09c0-.05.13,0,.13.06.1.69,0,1.66-.61,1.52m3.26-4.33c-.36.25-.89-.09-.78-.24a7.12,7.12,0,0,1,1.94-1.86c.58-.37.64-.39.67-.19a1.7,1.7,0,0,1-.44,1.27,1.41,1.41,0,0,1-1,.44c-.13,0-.13.39-.41.58m-1,4.92c-.68.42-1-.38-1.15-.52a.66.66,0,0,1-.09-.53,4.14,4.14,0,0,0-.07-1.58c-.07-.44.86-1.55,1.06-1.74s.54.1.56.42a1.35,1.35,0,0,1-.67,1.22c-.44.32-.52.75-.44.86s.23,0,.32-.14c.26-.56,1-.84,1.13-1.13a1.56,1.56,0,0,0,0-.95c0-.17.14-.21.27-.19s.23.24.31.45c.49,1.27-.74,2-.93,2.34-.1.14.19,1.17-.34,1.49m3.43-7.71c0-.21,1.44-.71,1.5-.56a1.38,1.38,0,0,1-.8,1.19c-.57.2-.8.14-.78.06a2.22,2.22,0,0,0,.08-.69m3.49-.91c-.17.5-1.55.94-1.48.59,0-.16,0-.36.1-.38s.59-.18,1.27-.35c.07,0,.15,0,.11.14m-1.39-3.67c.2-.13.42-.18.55-.05.44.44-.48.68-.29,1a5.28,5.28,0,0,0,1.26,1.42c.21.16.24.52-.56.69s-4,1-5.68,2.79c-2.11,2.24-3.45,5.14-3.64,4.74s-.6-.47-.54-.58a36.06,36.06,0,0,1,8.9-10m-14.71,21.31c-.12,0-.51,0-.42-.46.05-.31.39-.44.56-.27,0,.25-.12.48-.14.73m17.23-13.9c-.25-.51-.08-.85-.15-1.22a19.34,19.34,0,0,0-.73-1.83c-.12-.3.64-.22.07-1.3,0,0,.79-.33,0-.93a4.38,4.38,0,0,1-1-1.13.18.18,0,0,1,0-.22.75.75,0,0,0,0-1.27c-.35-.21-.76,0-1.13.24-.13.08-.19.13-.32.08a2.66,2.66,0,0,1-.3-.19c.46-.45.55-.89.51-1a2.44,2.44,0,0,0-1.71.17l-.07,0a1.2,1.2,0,0,0,.14-1.17h0a13.61,13.61,0,0,1,2.08-2.25l0,0c.05-.05.06-.1,0-.15l-.18-.11a15.64,15.64,0,0,0-23.2,13.66,16,16,0,0,0,6.66,12.79,2.25,2.25,0,0,0,.47.27.14.14,0,0,0,.18,0l.06-.08a.24.24,0,0,0,.06-.14c0-.12-.17-.22-.36-.51a4.69,4.69,0,0,1-.81-2.56,3.73,3.73,0,0,1,.77-2.3c.63.65,2,1.84,1.95,2.93s-1.17,1.16-.92,2.07c.15.57.58.34.66.77a1.65,1.65,0,0,0,1.58,1.17c.11,0,.2.08.41.29s1,.27,1.37.21.71.23,1.36.15c.82-.09,1-.15,1.38-.16a43.54,43.54,0,0,1,6.1.31c.4.06.52-.12.35-.43a4.82,4.82,0,0,1-.47-4.22,5.31,5.31,0,0,0,3.66-.67,1.91,1.91,0,0,0,.86-1.62,4,4,0,0,1-.08-1.14c.12-.46.21-.45.35-.54.61-.43.17-.77.07-.8a.56.56,0,0,0,.18-.78c-.11-.12-.45-1.05-.06-1.25s.88-.3,1.36-.51a.76.76,0,0,0,.4-1c-.22-.61-1.47-3.48-1.51-3.56" transform="translate(-322.64 -279.05)"/><path class="cls-3" d="M348.65,294.29c-.83,0-1.79,1-2.1,1.18s-.21.24,0,.17a19.37,19.37,0,0,1,1.81-1.07c.64-.23.6.3.84.27s-.05-.57-.53-.55" transform="translate(-322.64 -279.05)"/><path class="cls-3" d="M348.53,296.67c0,.15-.92.08-1.4,0-.12,0-.31,0,.06-.25a3.63,3.63,0,0,1,1.2-.56.12.12,0,0,1,.15.1,1.65,1.65,0,0,1,0,.67m.31-1.57c-.07,0,.07.37-.29.39-.78.05-1.39.79-1.87,1a2.23,2.23,0,0,1-.64.23.06.06,0,0,0,0,.11,7.49,7.49,0,0,0,2.76.12c0-.14-.11-.21-.08-.29a1.81,1.81,0,0,0,0-.93c0-.14.29,0,.29-.23s-.1-.44-.21-.41" transform="translate(-322.64 -279.05)"/><path class="cls-3" d="M351.12,299.49a3.94,3.94,0,0,0-1,.42c-.13.09-.75.47-.71-.14,0-.21.15-.73.15-.88s-.18-.13-.18,0a6.6,6.6,0,0,1-.13.89.41.41,0,0,0,.62.46,5,5,0,0,1,1.22-.57c.1,0,.12-.18,0-.18" transform="translate(-322.64 -279.05)"/><path class="cls-3" d="M339.64,301.66c-.12-.05-.09.19-.24.17s0-.22-.31-.51c-.13-.14-.47-.2-.72-.6-.4-.63-.06-2,.52-1.84.32.11.27.86.17,1.36-.06.32.42.47.47.36s-.18-.17-.24-.33.6-1.29-.3-1.58c-.65-.22-1.08.6-1,1.51a1.32,1.32,0,0,0,.87,1.18c.39.15.09.69.62.69.24,0,.29-.37.16-.41" transform="translate(-322.64 -279.05)"/><path class="cls-3" d="M344.85,284.71a.05.05,0,0,0,.07,0l1.1-1.39a.07.07,0,0,0,0-.11l-.19-.07a.08.08,0,0,0-.08,0l-1.1,1.4a.07.07,0,0,0,0,.11l.19.07" transform="translate(-322.64 -279.05)"/><path class="cls-3" d="M342.8,284.14l.19,0s.07,0,.08-.05l.65-1.59a.07.07,0,0,0-.05-.09l-.22-.05s0,0,0,0c-.09.2-.53,1.31-.66,1.62a.07.07,0,0,0,.05.09" transform="translate(-322.64 -279.05)"/><path class="cls-3" d="M340.53,283.92h.19a.09.09,0,0,0,.08-.06l.15-1.7a.06.06,0,0,0-.06-.07h-.2a.08.08,0,0,0-.07.07l-.15,1.69a.06.06,0,0,0,.06.08" transform="translate(-322.64 -279.05)"/><path class="cls-3" d="M338.33,284.08l.19,0s.06,0,.05-.08l-.32-1.67s0-.06-.08-.05l-.19,0s-.06,0-.05.08l.32,1.67a.07.07,0,0,0,.08.05" transform="translate(-322.64 -279.05)"/><path class="cls-3" d="M336.07,284.6a.08.08,0,0,0,.09,0l.18-.06a.07.07,0,0,0,0-.1l-.76-1.53a.08.08,0,0,0-.09,0l-.18.07a.07.07,0,0,0,0,.1Z" transform="translate(-322.64 -279.05)"/><path class="cls-3" d="M334,285.57a.07.07,0,0,0,.09,0l.17-.09s0-.07,0-.11l-1.15-1.3a.07.07,0,0,0-.08,0l-.17.1a.07.07,0,0,0,0,.11Z" transform="translate(-322.64 -279.05)"/><path class="cls-3" d="M332,287a.08.08,0,0,0,.09,0l.15-.13a.07.07,0,0,0,0-.11l-1.45-1a.06.06,0,0,0-.08,0l-.15.13a.07.07,0,0,0,0,.11Z" transform="translate(-322.64 -279.05)"/><path class="cls-3" d="M330.31,288.71a.08.08,0,0,0,.08,0,1.83,1.83,0,0,1,.13-.16.07.07,0,0,0,0-.11l-1.66-.64a.08.08,0,0,0-.08,0l-.12.16s0,.09,0,.1Z" transform="translate(-322.64 -279.05)"/><path class="cls-3" d="M327.17,290.52l1.78.25a.06.06,0,0,0,.07,0l.1-.18a.08.08,0,0,0-.05-.11l-1.79-.24a.06.06,0,0,0-.07,0l-.09.19a.06.06,0,0,0,.05.09" transform="translate(-322.64 -279.05)"/><path class="cls-3" d="M326.2,293.22l1.81-.17a.06.06,0,0,0,.06-.05l.07-.2a.08.08,0,0,0-.08-.09l-1.82.18a.06.06,0,0,0-.06.05,1.17,1.17,0,0,0-.05.2.06.06,0,0,0,.07.08" transform="translate(-322.64 -279.05)"/><path class="cls-3" d="M327.58,295.38a1.49,1.49,0,0,1,0-.21.07.07,0,0,0-.09-.08l-1.77.62a.07.07,0,0,0,0,.06c0,.07,0,.14,0,.21a.07.07,0,0,0,.09.07l1.76-.61a.1.1,0,0,0,.05-.06" transform="translate(-322.64 -279.05)"/><path class="cls-3" d="M327.53,297.79c0-.07,0-.14,0-.21s-.06-.09-.11-.06l-1.6,1.05a.09.09,0,0,0,0,.07l0,.21a.06.06,0,0,0,.1,0l1.59-1a.09.09,0,0,0,0-.07" transform="translate(-322.64 -279.05)"/><path class="cls-3" d="M327.93,300.21a2.25,2.25,0,0,1-.05-.22.07.07,0,0,0-.12,0l-1.3,1.43a.07.07,0,0,0,0,.07,1.72,1.72,0,0,1,.07.21.07.07,0,0,0,.12,0l1.29-1.42a.07.07,0,0,0,0-.06" transform="translate(-322.64 -279.05)"/><path class="cls-3" d="M328.6,302.35l-.92,1.75a.09.09,0,0,0,0,.07l.12.19c0,.05.09,0,.12,0l.91-1.73a.09.09,0,0,0,0-.07l-.11-.21a.07.07,0,0,0-.12,0" transform="translate(-322.64 -279.05)"/><path class="cls-3" d="M329.89,304.32a.07.07,0,0,0-.12,0l-.49,2a.07.07,0,0,0,0,.06l.16.18a.06.06,0,0,0,.11,0l.49-2a.07.07,0,0,0,0-.06l-.15-.19" transform="translate(-322.64 -279.05)"/><path class="cls-3" d="M500.38,299.46h-4.45v.42h2v5.36h.49v-5.36h2Zm-6.25,0h-.49v2.6h-3.3v-2.6h-.49v5.78h.49v-2.77h3.3v2.77h.49Zm-6.64,3h-2v.41H487v1.49a1,1,0,0,1-.18.17,1.76,1.76,0,0,1-.31.16,2.13,2.13,0,0,1-.44.12,2.6,2.6,0,0,1-.59,0,1.71,1.71,0,0,1-.75-.16,1.62,1.62,0,0,1-.57-.44,2,2,0,0,1-.37-.7,3,3,0,0,1-.13-.92V302a3.1,3.1,0,0,1,.11-.89,2,2,0,0,1,.34-.69,1.7,1.7,0,0,1,.55-.44,1.79,1.79,0,0,1,.75-.15,1.93,1.93,0,0,1,.67.1,1.54,1.54,0,0,1,.47.28,1.25,1.25,0,0,1,.3.42,2,2,0,0,1,.15.49h.49a2.15,2.15,0,0,0-.2-.68,1.68,1.68,0,0,0-.41-.54,1.93,1.93,0,0,0-.63-.36,2.45,2.45,0,0,0-.85-.13,2.34,2.34,0,0,0-.93.18,2.14,2.14,0,0,0-.7.52,2.25,2.25,0,0,0-.45.82,3.61,3.61,0,0,0-.15,1.08v.7a3.12,3.12,0,0,0,.17,1.09,2.19,2.19,0,0,0,.48.83,1.94,1.94,0,0,0,.73.53,2.34,2.34,0,0,0,.93.19,3.73,3.73,0,0,0,.8-.08,3.38,3.38,0,0,0,.59-.2,1.46,1.46,0,0,0,.39-.25,1.64,1.64,0,0,0,.23-.24Zm-6.71-3h-.49v5.78h.49Zm-5.36,0h-.49v5.78h3.34v-.42h-2.85Zm-6.78,2.66H466v-2.24H469v-.42h-3.58v5.78H466v-2.7h2.69Zm-5.87.54a3.28,3.28,0,0,1-.12.93,2,2,0,0,1-.34.7,1.5,1.5,0,0,1-.55.45,1.93,1.93,0,0,1-1.49,0,1.58,1.58,0,0,1-.55-.45,2,2,0,0,1-.36-.7,3.28,3.28,0,0,1-.12-.93V302a3.33,3.33,0,0,1,.12-.93,2.09,2.09,0,0,1,.35-.7,1.5,1.5,0,0,1,.56-.44,1.57,1.57,0,0,1,.73-.16,1.65,1.65,0,0,1,.75.16,1.47,1.47,0,0,1,.55.44,2.09,2.09,0,0,1,.35.7,3.33,3.33,0,0,1,.12.93Zm.48-.62a3.8,3.8,0,0,0-.15-1.1,2.47,2.47,0,0,0-.46-.83,2,2,0,0,0-.71-.54,2.18,2.18,0,0,0-.93-.19,2.13,2.13,0,0,0-.92.19,2,2,0,0,0-.71.54,2.66,2.66,0,0,0-.46.83,3.79,3.79,0,0,0-.16,1.1v.62a3.74,3.74,0,0,0,.16,1.1,2.4,2.4,0,0,0,.47.83,2,2,0,0,0,.71.54,2.26,2.26,0,0,0,.92.19,2.34,2.34,0,0,0,.93-.19,2.1,2.1,0,0,0,.71-.54,2.54,2.54,0,0,0,.45-.83,3.75,3.75,0,0,0,.15-1.1Zm-10.76,0h-2.7v-2.18h3.09v-.42H449.3v5.78h3.6v-.42h-3.11v-2.35h2.7Zm-6,1.38a1.78,1.78,0,0,1-.48,1.1,1.66,1.66,0,0,1-1.16.36,1.53,1.53,0,0,1-.72-.16,1.6,1.6,0,0,1-.52-.45,2.16,2.16,0,0,1-.33-.7,3.48,3.48,0,0,1-.11-.88V302a3,3,0,0,1,.12-.89,2,2,0,0,1,.34-.69,1.48,1.48,0,0,1,.54-.45,1.66,1.66,0,0,1,.72-.15,1.85,1.85,0,0,1,.65.1,1.27,1.27,0,0,1,.48.28,1.49,1.49,0,0,1,.31.46,2.9,2.9,0,0,1,.16.63H447a2.48,2.48,0,0,0-.21-.8,1.67,1.67,0,0,0-.42-.59,1.81,1.81,0,0,0-.63-.37,2.45,2.45,0,0,0-.83-.13,2.1,2.1,0,0,0-.92.19,2,2,0,0,0-.69.53,2.41,2.41,0,0,0-.45.82,3.59,3.59,0,0,0-.15,1.07v.72a3.59,3.59,0,0,0,.15,1.07,2.57,2.57,0,0,0,.44.82,1.88,1.88,0,0,0,.69.53,2.15,2.15,0,0,0,.89.19,2.76,2.76,0,0,0,.85-.13,2,2,0,0,0,.65-.37,1.85,1.85,0,0,0,.42-.6,2.36,2.36,0,0,0,.21-.78Zm-6-4H440v5l-3.32-5h-.49v5.78h.49v-4.95l3.32,4.95h.49Zm-6.71,2.6H431v-2.18h3.08v-.42h-3.57v5.78h3.59v-.42H431v-2.35h2.7Zm-5.73-2.6h-.49v5.78H428Zm-3.41,4a1.78,1.78,0,0,1-.48,1.1,1.66,1.66,0,0,1-1.16.36,1.53,1.53,0,0,1-.72-.16,1.6,1.6,0,0,1-.52-.45,2.16,2.16,0,0,1-.33-.7,3.48,3.48,0,0,1-.11-.88V302a3,3,0,0,1,.12-.89,2,2,0,0,1,.34-.69,1.48,1.48,0,0,1,.54-.45,1.66,1.66,0,0,1,.72-.15,1.85,1.85,0,0,1,.65.1,1.27,1.27,0,0,1,.48.28,1.49,1.49,0,0,1,.31.46,2.9,2.9,0,0,1,.16.63h.49a2.48,2.48,0,0,0-.21-.8,1.67,1.67,0,0,0-.42-.59,1.81,1.81,0,0,0-.63-.37,2.45,2.45,0,0,0-.83-.13,2.1,2.1,0,0,0-.92.19,2,2,0,0,0-.69.53,2.41,2.41,0,0,0-.45.82,3.59,3.59,0,0,0-.15,1.07v.72a3.59,3.59,0,0,0,.15,1.07,2.57,2.57,0,0,0,.44.82,1.88,1.88,0,0,0,.69.53,2.15,2.15,0,0,0,.89.19,2.76,2.76,0,0,0,.85-.13,2,2,0,0,0,.65-.37,1.85,1.85,0,0,0,.42-.6,2.36,2.36,0,0,0,.21-.78Zm-6.39.82a1,1,0,0,1-.3.35,1.86,1.86,0,0,1-.47.22,2.32,2.32,0,0,1-.61.07,2.46,2.46,0,0,1-.6-.07,1.48,1.48,0,0,1-.53-.22,1.18,1.18,0,0,1-.39-.41,1.15,1.15,0,0,1-.15-.61h-.49a1.63,1.63,0,0,0,.09.55,1.55,1.55,0,0,0,.24.44,1.42,1.42,0,0,0,.36.33,2.38,2.38,0,0,0,.45.23,2.83,2.83,0,0,0,.5.13,3,3,0,0,0,.52.05,2.85,2.85,0,0,0,.79-.11,2.28,2.28,0,0,0,.63-.29,1.46,1.46,0,0,0,.41-.48,1.33,1.33,0,0,0,.15-.63,1.38,1.38,0,0,0-.13-.62,1.48,1.48,0,0,0-.37-.47,2.43,2.43,0,0,0-.6-.35,7.78,7.78,0,0,0-.82-.28,7,7,0,0,1-.73-.24,2.1,2.1,0,0,1-.48-.28.94.94,0,0,1-.26-.32,1,1,0,0,1-.08-.39.86.86,0,0,1,.1-.41,1,1,0,0,1,.27-.34,1.58,1.58,0,0,1,.45-.23,2.35,2.35,0,0,1,.63-.08,1.83,1.83,0,0,1,.64.1,1.17,1.17,0,0,1,.46.27,1.1,1.1,0,0,1,.29.42,1.27,1.27,0,0,1,.1.52h.49a1.72,1.72,0,0,0-.13-.68,1.65,1.65,0,0,0-.4-.54,1.78,1.78,0,0,0-.63-.37,2.31,2.31,0,0,0-.82-.14,2.77,2.77,0,0,0-.78.11,1.81,1.81,0,0,0-.62.31,1.39,1.39,0,0,0-.4.47,1.33,1.33,0,0,0-.14.6,1.4,1.4,0,0,0,.13.6,1.47,1.47,0,0,0,.38.45,2.54,2.54,0,0,0,.59.34c.24.09.5.18.79.26a6.37,6.37,0,0,1,.75.26,1.62,1.62,0,0,1,.49.28.88.88,0,0,1,.26.33,1.18,1.18,0,0,1,.08.43.93.93,0,0,1-.11.44m-9.66-2.2h-2.7v-2.18h3.09v-.42h-3.57v5.78H409v-.42h-3.11v-2.35h2.7Zm-5.63-2.6h-.49v2.6h-3.3v-2.6h-.49v5.78h.49v-2.77h3.3v2.77h.49Zm-6.19,0h-4.44v.42h2v5.36h.49v-5.36h2Zm-13.66.42h1.39a2.08,2.08,0,0,1,.63.09,1.36,1.36,0,0,1,.46.25,1.07,1.07,0,0,1,.28.41,1.29,1.29,0,0,1,.1.53,1.32,1.32,0,0,1-.09.48,1.12,1.12,0,0,1-.25.4,1.43,1.43,0,0,1-.43.27,1.55,1.55,0,0,1-.59.11h-1.5Zm3.08,5.36h.52v-.05l-1.45-2.46a1.69,1.69,0,0,0,.49-.23,1.57,1.57,0,0,0,.38-.35,1.64,1.64,0,0,0,.33-1,1.86,1.86,0,0,0-.14-.73,1.38,1.38,0,0,0-.39-.53,1.75,1.75,0,0,0-.62-.33,2.88,2.88,0,0,0-.81-.11h-1.88v5.78h.49v-2.41h1.68Zm-6.25-2.58a3.28,3.28,0,0,1-.12.93,2,2,0,0,1-.34.7,1.5,1.5,0,0,1-.55.45,1.79,1.79,0,0,1-.75.15,1.7,1.7,0,0,1-.73-.15,1.53,1.53,0,0,1-.56-.45,2,2,0,0,1-.35-.7,2.94,2.94,0,0,1-.13-.93V302a3.33,3.33,0,0,1,.12-.93,2.09,2.09,0,0,1,.35-.7,1.5,1.5,0,0,1,.56-.44,1.6,1.6,0,0,1,.73-.16,1.65,1.65,0,0,1,.75.16,1.59,1.59,0,0,1,.56.44,2.08,2.08,0,0,1,.34.7,3.33,3.33,0,0,1,.12.93Zm.49-.62a3.79,3.79,0,0,0-.16-1.1,2.47,2.47,0,0,0-.46-.83,1.89,1.89,0,0,0-.71-.54,2.35,2.35,0,0,0-1.85,0,2.07,2.07,0,0,0-.71.54,2.64,2.64,0,0,0-.45.83,3.48,3.48,0,0,0-.17,1.1v.62a3.43,3.43,0,0,0,.17,1.1,2.38,2.38,0,0,0,.46.83,2.1,2.1,0,0,0,.71.54,2.29,2.29,0,0,0,.92.19,2.34,2.34,0,0,0,.93-.19,2.1,2.1,0,0,0,.71-.54,2.54,2.54,0,0,0,.45-.83,3.74,3.74,0,0,0,.16-1.1Zm-6.63.08h-2.7v-2.24h3.09v-.42h-3.58v5.78h.49v-2.7h2.7Z" transform="translate(-322.64 -279.05)"/><path class="cls-3" d="M499.49,290.86h-2.61v-1.57h3.06v-1.1h-4.42v6.6H500V293.7h-3.07v-1.77h2.61Zm-5.95-2.67h-5.38v1.1h2v5.5h1.36v-5.5h2Zm-8.66,0v4.36a1.28,1.28,0,0,1-.3.94,1.38,1.38,0,0,1-1.72,0,1.24,1.24,0,0,1-.31-.94v-4.36h-1.36v4.36a2.49,2.49,0,0,0,.19,1,2,2,0,0,0,.52.73,2.39,2.39,0,0,0,.8.44,3.31,3.31,0,0,0,1,.15,3.24,3.24,0,0,0,1-.15,2.29,2.29,0,0,0,.8-.44,2.05,2.05,0,0,0,.53-.73,2.49,2.49,0,0,0,.19-1v-4.36Zm-5.61,0h-5.38v1.1h2v5.5h1.36v-5.5h2Zm-7.49,0h-1.36v6.6h1.36Zm-3.43,0H463v1.1h2v5.5h1.36v-5.5h2Zm-8.71,5.17a.58.58,0,0,1-.18.23,1,1,0,0,1-.33.16,1.53,1.53,0,0,1-.45.06,2.23,2.23,0,0,1-.54-.06,1,1,0,0,1-.41-.19.88.88,0,0,1-.26-.34,1.13,1.13,0,0,1-.1-.51H456a2.07,2.07,0,0,0,.1.68,1.72,1.72,0,0,0,.3.55,2,2,0,0,0,.44.42,3.19,3.19,0,0,0,.55.29,2.72,2.72,0,0,0,.62.17,3.89,3.89,0,0,0,1.64-.06,2.55,2.55,0,0,0,.76-.36,1.58,1.58,0,0,0,.48-.58,1.71,1.71,0,0,0,.17-.77,1.86,1.86,0,0,0-.14-.73,1.65,1.65,0,0,0-.42-.58,2.7,2.7,0,0,0-.68-.46,5.71,5.71,0,0,0-.95-.37,3.86,3.86,0,0,1-1-.42.62.62,0,0,1-.33-.54.6.6,0,0,1,.07-.3.64.64,0,0,1,.19-.25,1.27,1.27,0,0,1,.33-.16,1.56,1.56,0,0,1,.46-.06,1.62,1.62,0,0,1,.48.07,1,1,0,0,1,.34.2.75.75,0,0,1,.2.3,1,1,0,0,1,.07.39h1.36a2,2,0,0,0-.17-.82,2.07,2.07,0,0,0-.49-.65,2.28,2.28,0,0,0-.77-.42,3.13,3.13,0,0,0-1-.15,3.42,3.42,0,0,0-1,.13,2.64,2.64,0,0,0-.77.38,1.74,1.74,0,0,0-.5.58,1.6,1.6,0,0,0-.18.75,1.67,1.67,0,0,0,.17.76,2.14,2.14,0,0,0,.48.57,3.42,3.42,0,0,0,.7.42c.27.12.56.23.86.33l.65.24a1.67,1.67,0,0,1,.39.23.68.68,0,0,1,.2.26,1,1,0,0,1,0,.31.82.82,0,0,1-.07.3m-5.94-5.17h-1.35v4.35l-2.66-4.35h-1.36v6.6h1.36v-4.34l2.65,4.34h1.36Zm-8.21,0h-1.36v6.6h1.36Zm-7.55,6.6h1.61l-2.41-3.67,2.35-2.93h-1.68l-1.68,2.17-.6.82v-3h-1.36v6.6h1.36V292.9l.71-.76Zm-7.41-2.2a2.37,2.37,0,0,1-.11.52,1,1,0,0,1-.25.37,1,1,0,0,1-.38.22,1.91,1.91,0,0,1-.56.07,1.32,1.32,0,0,1-.62-.13,1,1,0,0,1-.42-.39,2,2,0,0,1-.23-.64,4.78,4.78,0,0,1-.08-.9v-.44a2.85,2.85,0,0,1,.34-1.55,1.16,1.16,0,0,1,1-.51,1.91,1.91,0,0,1,.57.08.92.92,0,0,1,.38.24,1,1,0,0,1,.23.38,1.91,1.91,0,0,1,.11.52h1.36a3.34,3.34,0,0,0-.24-.93,2.16,2.16,0,0,0-.52-.74,2.39,2.39,0,0,0-.8-.49,3.33,3.33,0,0,0-1.09-.17,2.79,2.79,0,0,0-1.14.22,2.45,2.45,0,0,0-.86.64,2.76,2.76,0,0,0-.55,1,4.16,4.16,0,0,0-.2,1.32v.43a4.47,4.47,0,0,0,.19,1.32,3.09,3.09,0,0,0,.54,1,2.46,2.46,0,0,0,.86.63,2.79,2.79,0,0,0,1.14.22,3.33,3.33,0,0,0,1.09-.17,2.3,2.3,0,0,0,.81-.47,2.11,2.11,0,0,0,.53-.72,2.76,2.76,0,0,0,.23-.93Zm-6.41-4.4h-1.35v4.35l-2.65-4.35h-1.36v6.6h1.36v-4.34l2.64,4.34h1.36Zm-10.47,1.67.83,2.47h-1.66Zm1.65,4.93h1.45l-2.47-6.6H413l-2.46,6.6H412l.46-1.36h2.38Zm-9.33-6.6h-1.36v6.6h4.25V293.7H406Zm-7.2,1.1H400a1.28,1.28,0,0,1,.5.09,1,1,0,0,1,.34.24,1,1,0,0,1,.2.35,1.4,1.4,0,0,1,.06.41,1.25,1.25,0,0,1-.06.4.79.79,0,0,1-.2.31,1,1,0,0,1-.34.2,1.51,1.51,0,0,1-.5.07h-1.22Zm1.22,3.17a3.31,3.31,0,0,0,1-.14,2.24,2.24,0,0,0,.78-.42,1.68,1.68,0,0,0,.49-.66,2.18,2.18,0,0,0,.17-.87,2.29,2.29,0,0,0-.17-.87,1.78,1.78,0,0,0-.49-.69,2.15,2.15,0,0,0-.78-.46,3,3,0,0,0-1-.16h-2.58v6.6h1.36v-2.33Zm-11.18-4.27h-1.57l1.92,3.27-2,3.33h1.58l1.27-2.31,1.27,2.31h1.59l-2-3.33,1.93-3.27h-1.57L390,290.47Zm-6.24,1.67.83,2.47h-1.65Zm1.66,4.93h1.44l-2.47-6.6h-1.26l-2.46,6.6h1.45l.45-1.36h2.39Zm-13.8-6.6v6.6h1.36V293l-.13-3.11,1.77,4.91h.94l1.78-4.92L376,293v1.8h1.37v-6.6h-1.79L373.91,293l-1.7-4.79Z" transform="translate(-322.64 -279.05)"/></g></svg>